<svg id="visual" viewBox="0 0 900 600" width="900" height="600" xmlns="http://www.w3.org/2000/svg" xmlns:xlink="http://www.w3.org/1999/xlink" version="1.1"><g transform="translate(474.1324241039739 296.27086100081056)"><path d="M113.4 -130.5C148.3 -105.8 179.1 -71.4 188.2 -31.4C197.3 8.5 184.8 54 161.2 91.3C137.6 128.7 102.8 157.8 64.1 168.8C25.3 179.8 -17.4 172.6 -54 156C-90.6 139.4 -121.1 113.5 -160.3 77.2C-199.5 41 -247.5 -5.6 -238.3 -39.3C-229.1 -73 -162.8 -94 -113.5 -116.1C-64.3 -138.3 -32.1 -161.6 3.5 -165.9C39.2 -170.1 78.4 -155.1 113.4 -130.5" fill="#BB004B"></path></g></svg>