<svg id="visual" viewBox="0 0 900 900" width="900" height="900" xmlns="http://www.w3.org/2000/svg" xmlns:xlink="http://www.w3.org/1999/xlink" version="1.1"><g transform="translate(542.0909808483044 444.0450966349912)"><path d="M254.6 -356.1C299.2 -318.1 283.3 -202.5 277.3 -115.1C271.2 -27.8 274.9 31.4 277.2 110.3C279.4 189.3 280.2 288 233.8 337.6C187.3 387.1 93.7 387.6 4.6 381.2C-84.4 374.9 -168.9 361.8 -233.6 318.1C-298.2 274.5 -343.1 200.3 -390.1 113.2C-437 26.1 -486 -73.9 -463.6 -153.1C-441.3 -232.4 -347.6 -290.9 -258.4 -314.5C-169.3 -338 -84.6 -326.5 10.2 -340.5C105 -354.5 210 -394.1 254.6 -356.1" fill="#BB004B"></path></g></svg> 