<svg id="visual" viewBox="0 0 900 450" width="900" height="450" xmlns="http://www.w3.org/2000/svg" xmlns:xlink="http://www.w3.org/1999/xlink" version="1.1"><path d="M0 325L21.5 330.5C43 336 86 347 128.8 355.5C171.7 364 214.3 370 257.2 372C300 374 343 372 385.8 361.3C428.7 350.7 471.3 331.3 514.2 329.3C557 327.3 600 342.7 642.8 347C685.7 351.3 728.3 344.7 771.2 341.2C814 337.7 857 337.3 878.5 337.2L900 337L900 451L878.5 451C857 451 814 451 771.2 451C728.3 451 685.7 451 642.8 451C600 451 557 451 514.2 451C471.3 451 428.7 451 385.8 451C343 451 300 451 257.2 451C214.3 451 171.7 451 128.8 451C86 451 43 451 21.5 451L0 451Z" fill="#C62368" stroke-linecap="round" stroke-linejoin="miter"></path></svg>