<svg id="visual" viewBox="0 0 900 450" width="900" height="450" xmlns="http://www.w3.org/2000/svg" xmlns:xlink="http://www.w3.org/1999/xlink" version="1.1"><path d="M0 365L18.8 364.7C37.7 364.3 75.3 363.7 112.8 344C150.3 324.3 187.7 285.7 225.2 267.8C262.7 250 300.3 253 337.8 256.7C375.3 260.3 412.7 264.7 450.2 277.5C487.7 290.3 525.3 311.7 562.8 323.2C600.3 334.7 637.7 336.3 675.2 327.5C712.7 318.7 750.3 299.3 787.8 291.2C825.3 283 862.7 286 881.3 287.5L900 289L900 451L881.3 451C862.7 451 825.3 451 787.8 451C750.3 451 712.7 451 675.2 451C637.7 451 600.3 451 562.8 451C525.3 451 487.7 451 450.2 451C412.7 451 375.3 451 337.8 451C300.3 451 262.7 451 225.2 451C187.7 451 150.3 451 112.8 451C75.3 451 37.7 451 18.8 451L0 451Z" fill="#C62368" stroke-linecap="round" stroke-linejoin="miter"></path></svg>